<svg xmlns="http://www.w3.org/2000/svg" width="225" height="225" viewBox="0 0 225 225" version="1.1"><path d="M 178.433 97.951 L 177.500 98.868 165.743 103.988 L 153.985 109.109 152.993 108.495 L 152 107.882 152 110.887 L 152 113.892 157.657 111.946 L 163.313 110 164.157 110 L 165 110 165 116.492 L 165 122.984 172.500 119.273 L 180 115.561 180 114.902 L 180 114.243 176.979 112.991 L 173.957 111.740 173.413 110.859 L 172.868 109.978 176.542 103.930 L 180.216 97.883 179.791 97.458 L 179.367 97.033 178.433 97.951 M 46.342 102.477 L 48.602 106.500 50.377 109.191 L 52.152 111.882 47.862 114.070 L 43.572 116.259 51.036 120.080 L 58.500 123.901 59.250 123.951 L 60 124 60 117.554 L 60 111.108 65.657 113.054 L 71.313 115 71.657 115 L 72 115 72 112.735 L 72 110.469 66.750 108.612 L 61.500 106.754 52.791 102.604 L 44.083 98.454 46.342 102.477 M 152.839 115.060 L 144.178 117.926 133.839 120.104 L 123.500 122.282 110 122.258 L 96.500 122.234 88.083 120.669 L 79.665 119.104 70.826 116.392 L 61.986 113.681 61.544 114.123 L 61.102 114.565 61.693 123.694 L 62.285 132.824 72.892 135.872 L 83.500 138.920 89.500 139.923 L 95.500 140.925 104 141.563 L 112.500 142.200 122.466 141.072 L 132.432 139.943 140.466 137.978 L 148.500 136.012 155.750 133.405 L 163 130.797 163 121.399 L 163 112 162.250 112.097 L 161.500 112.194 152.839 115.060 M 151.750 122.973 L 150 125.445 150 126.414 L 150 127.382 151.468 125.441 L 152.936 123.500 152.968 125.191 L 153 126.882 151.889 127.568 L 150.778 128.255 148.393 125.377 L 146.008 122.500 144.223 124.590 L 142.439 126.679 140.747 125.612 L 139.055 124.545 137.807 125.793 L 136.559 127.041 136.333 130.573 L 136.107 134.104 137.566 134.664 L 139.025 135.224 140.593 133.923 L 142.161 132.622 141.719 130.311 L 141.277 128 142.139 128 L 143 128 143 129 L 143 130 144.622 130 L 146.245 130 145.011 128.513 L 143.776 127.025 144.357 125.513 L 144.937 124 145.986 124 L 147.034 124 146.723 127.750 L 146.411 131.500 144.706 131.361 L 143 131.222 143 132.111 L 143 133 144.778 133 L 146.556 133 148.268 131 L 149.980 129 151.407 129 L 152.833 129 153.241 130.224 L 153.649 131.448 154.111 129.474 L 154.573 127.500 154.036 124 L 153.500 120.500 151.750 122.973 M 68.566 126 L 68.667 130 69.333 130.667 L 70 131.333 70 129.260 L 70 127.187 72.250 127.620 L 74.500 128.052 72.250 126.873 L 70 125.694 70 124.372 L 70 123.050 72.500 124 L 75 124.950 75 124.092 L 75 123.233 72.750 122.630 L 70.500 122.027 69.483 122.014 L 68.466 122 68.566 126 M 131.461 128.043 L 129.612 130.086 131.241 129.461 L 132.869 128.836 133.267 132.668 L 133.664 136.500 133.832 131.250 L 134 126 133.655 126 L 133.310 126 131.461 128.043 M 138 127.500 L 138 129 139 129 L 140 129 140 127.500 L 140 126 139 126 L 138 126 138 127.500 M 75 129.300 L 75 131.600 76.200 132.800 L 77.400 134 79.200 134 L 81 134 81 132.809 L 81 131.618 82.250 133.169 L 83.500 134.721 85.250 135.329 L 87 135.937 86.850 132.219 L 86.700 128.500 86.284 131.250 L 85.867 134 84.434 134 L 83 134 82.985 130.750 L 82.969 127.500 82.124 128.834 L 81.278 130.168 80.671 128.584 L 80.063 127 77.531 127 L 75 127 75 129.300 M 76 128.845 L 76 129.836 76.607 131.418 L 77.214 133 78.677 133 L 80.139 133 79.820 130.760 L 79.500 128.520 77.750 128.187 L 76 127.853 76 128.845 M 99 129.469 L 99 130.937 97.508 130.365 L 96.017 129.792 95.390 131.426 L 94.763 133.059 93.517 131.354 L 92.270 129.649 90.135 129.492 L 88 129.334 88 132.667 L 88 136 89 136 L 90 136 90 133.500 L 90 131 91.500 131 L 93 131 93.070 134.250 L 93.141 137.500 93.895 135.573 L 94.650 133.646 95.294 135.323 L 95.937 137 98.219 136.993 L 100.500 136.986 100.703 132.493 L 100.907 128 99.953 128 L 99 128 99 129.469 M 112.882 128.750 L 112.763 129.500 112.882 130.250 L 113 131 111.200 131 L 109.400 131 108.200 132.200 L 107 133.400 107 132.134 L 107 130.867 104.250 131.184 L 101.500 131.500 101.500 133.891 L 101.500 136.282 103.222 137.369 L 104.945 138.455 106.222 137.080 L 107.500 135.706 105.782 136.309 L 104.064 136.913 103.544 136.071 L 103.023 135.229 105.435 134.768 L 107.847 134.307 108.329 136.150 L 108.811 137.993 111.405 137.779 L 114 137.564 114 132.782 L 114 128 113.500 128 L 113 128 112.882 128.750 M 118.252 133.500 L 118.272 137.500 118.707 135.238 L 119.142 132.977 118.687 131.238 L 118.232 129.500 118.252 133.500 M 120.118 133.899 L 120.237 137.500 120.868 134.582 L 121.500 131.665 122.750 131.249 L 124 130.833 124 133.358 L 124 135.882 125.071 136.544 L 126.142 137.206 125.821 133.853 L 125.500 130.500 122.750 130.399 L 120 130.298 120.118 133.899 M 137.500 131 L 136.882 132 137.473 132.956 L 138.064 133.913 139.532 133.349 L 141 132.786 141 131.393 L 141 130 139.559 130 L 138.118 130 137.500 131 M 96.639 131.694 L 96 132.333 96 134.167 L 96 136 97.500 136 L 99 136 99 134.059 L 99 132.118 98.139 131.586 L 97.279 131.054 96.639 131.694 M 103 132.393 L 103 132.786 104.500 133.362 L 106 133.937 106 132.969 L 106 132 104.500 132 L 103 132 103 132.393 M 109.368 133.484 L 108.734 135.134 109.909 136.309 L 111.083 137.483 112.025 135.992 L 112.967 134.500 112.671 133.563 L 112.375 132.625 111.188 132.229 L 110.001 131.834 109.368 133.484" stroke="none" fill="#04612a" fill-rule="evenodd"/><path d="M 79.239 19.250 L 78.232 20.500 63.616 45.825 L 49 71.150 49 72.848 L 49 74.547 56.906 88.213 L 64.811 101.879 62.526 101.010 L 60.241 100.141 51.027 95.513 L 41.812 90.886 39.656 91.193 L 37.500 91.500 37.197 94.107 L 36.895 96.713 40.447 102.775 L 44 108.837 44 109.405 L 44 109.973 40.500 111.436 L 37 112.898 37 115.377 L 37 117.855 42.750 121.336 L 48.500 124.816 52.250 126.593 L 56 128.370 56 131.114 L 56 133.857 57.561 135.419 L 59.123 136.980 68.811 139.975 L 78.500 142.970 86.500 144.716 L 94.500 146.463 110.500 146.470 L 126.500 146.478 135 144.688 L 143.500 142.898 155 138.964 L 166.500 135.031 167.750 133.324 L 169 131.618 169 128.980 L 169 126.342 174.186 123.921 L 179.372 121.500 183.186 118.744 L 187 115.987 187 114.019 L 187 112.051 183.750 110.399 L 180.500 108.746 180.160 108.449 L 179.820 108.153 183.987 101.138 L 188.155 94.123 187.828 91.811 L 187.500 89.500 184.748 89.183 L 181.996 88.867 179.248 90.809 L 176.500 92.751 168.147 96.939 L 159.793 101.126 159.493 100.813 L 159.193 100.500 167.088 87 L 174.982 73.500 174.430 72 L 173.878 70.500 159.787 46 L 145.695 21.500 144.192 19.750 L 142.690 18 111.467 18 L 80.245 18 79.239 19.250 M 82.043 23.500 L 81.259 24.500 67.630 48.124 L 54 71.748 54 73.042 L 54 74.336 66.108 95.227 L 78.216 116.118 77.747 116.587 L 77.277 117.056 74.639 116.053 L 72 115.050 72 112.163 L 72 109.277 64.250 106.043 L 56.500 102.809 48.228 98.535 L 39.957 94.262 42.855 99.381 L 45.753 104.500 47.909 108.138 L 50.065 111.775 45.536 113.638 L 41.007 115.500 41.004 116.036 L 41 116.572 50.448 121.536 L 59.896 126.500 60.198 129.960 L 60.500 133.419 69.458 136.267 L 78.415 139.115 85.458 140.651 L 92.500 142.186 106 142.693 L 119.500 143.199 129.012 141.636 L 138.524 140.073 147.012 137.611 L 155.500 135.149 160.250 133.110 L 165 131.071 165 128.122 L 165 125.173 174.734 119.925 L 184.467 114.678 180.015 112.787 L 175.563 110.896 175.160 110.493 L 174.757 110.090 179.378 102.207 L 184 94.324 184 93.792 L 184 93.260 176.750 97.023 L 169.500 100.786 160.806 104.488 L 152.113 108.189 151.806 111.279 L 151.500 114.368 148.668 115.120 L 145.836 115.871 146.404 114.390 L 146.972 112.908 158.492 92.972 L 170.011 73.036 155.697 48.268 L 141.382 23.500 112.105 23 L 82.827 22.500 82.043 23.500 M 83.639 29.250 L 82.232 31.500 70.616 51.691 L 59 71.882 59.046 73.191 L 59.093 74.500 71.848 96.500 L 84.603 118.500 109.551 118.526 L 134.500 118.552 110 118.228 L 85.500 117.905 72.739 95.796 L 59.979 73.688 60.332 73.335 L 60.685 72.982 111.838 73.241 L 162.990 73.500 150.889 94.443 L 138.789 115.387 138.247 116.943 L 137.706 118.500 138.770 117.500 L 139.834 116.500 152.361 94.758 L 164.888 73.016 151.694 50.028 L 138.500 27.039 111.773 27.020 L 85.046 27 83.639 29.250 M 86.554 53.250 L 93.860 67.500 98.775 67.797 L 103.690 68.094 107.542 57.577 L 111.394 47.061 111.758 47.425 L 112.121 47.788 115.853 57.644 L 119.584 67.500 124.542 67.770 L 129.500 68.040 136.750 54.047 L 144 40.055 144 39.527 L 144 39 138.601 39 L 133.201 39 129.391 48 L 125.580 57 124.943 57 L 124.306 57 120.929 47.958 L 117.553 38.916 111.691 39.208 L 105.828 39.500 102.788 47.500 L 99.747 55.500 99.081 56.243 L 98.414 56.986 94.606 47.993 L 90.799 39 85.023 39 L 79.248 39 86.554 53.250 M 85 91.618 L 85 107.236 107.750 106.758 L 130.500 106.280 134.950 104.614 L 139.401 102.947 141.200 101.319 L 143 99.690 143 97.500 L 143 95.310 141.248 93.725 L 139.496 92.139 136.575 91.028 L 133.653 89.918 137.077 88.209 L 140.500 86.500 140.811 84.311 L 141.123 82.123 139.126 80.126 L 137.130 78.130 133.315 77.071 L 129.500 76.011 107.250 76.006 L 85 76 85 91.618 M 99 84.521 L 99 88.206 111.465 87.853 L 123.930 87.500 125.515 85.914 L 127.100 84.328 125.400 82.914 L 123.700 81.500 111.350 81.168 L 99 80.837 99 84.521 M 99 97 L 99 101 110.351 101 L 121.702 101 124.905 99.883 L 128.109 98.767 127.804 96.674 L 127.500 94.582 125 93.891 L 122.500 93.199 110.750 93.100 L 99 93 99 97 M 151.750 122.973 L 150 125.445 150 126.414 L 150 127.382 151.468 125.441 L 152.936 123.500 152.968 125.191 L 153 126.882 151.889 127.568 L 150.778 128.255 148.393 125.377 L 146.008 122.500 144.223 124.590 L 142.439 126.679 140.747 125.612 L 139.055 124.545 137.807 125.793 L 136.559 127.041 136.333 130.573 L 136.107 134.104 137.566 134.664 L 139.025 135.224 140.593 133.923 L 142.161 132.622 141.719 130.311 L 141.277 128 142.139 128 L 143 128 143 129 L 143 130 144.622 130 L 146.245 130 145.011 128.513 L 143.776 127.025 144.357 125.513 L 144.937 124 145.986 124 L 147.034 124 146.723 127.750 L 146.411 131.500 144.706 131.361 L 143 131.222 143 132.111 L 143 133 144.778 133 L 146.556 133 148.268 131 L 149.980 129 151.407 129 L 152.833 129 153.241 130.224 L 153.649 131.448 154.111 129.474 L 154.573 127.500 154.036 124 L 153.500 120.500 151.750 122.973 M 68.566 126 L 68.667 130 69.333 130.667 L 70 131.333 70 129.260 L 70 127.187 72.250 127.620 L 74.500 128.052 72.250 126.873 L 70 125.694 70 124.372 L 70 123.050 72.500 124 L 75 124.950 75 124.092 L 75 123.233 72.750 122.630 L 70.500 122.027 69.483 122.014 L 68.466 122 68.566 126 M 131.461 128.043 L 129.612 130.086 131.241 129.461 L 132.869 128.836 133.267 132.668 L 133.664 136.500 133.832 131.250 L 134 126 133.655 126 L 133.310 126 131.461 128.043 M 138 127.500 L 138 129 139 129 L 140 129 140 127.500 L 140 126 139 126 L 138 126 138 127.500 M 75 129.300 L 75 131.600 76.200 132.800 L 77.400 134 79.200 134 L 81 134 81 132.809 L 81 131.618 82.250 133.169 L 83.500 134.721 85.250 135.329 L 87 135.937 86.850 132.219 L 86.700 128.500 86.284 131.250 L 85.867 134 84.434 134 L 83 134 82.985 130.750 L 82.969 127.500 82.124 128.834 L 81.278 130.168 80.671 128.584 L 80.063 127 77.531 127 L 75 127 75 129.300 M 76 128.845 L 76 129.836 76.607 131.418 L 77.214 133 78.677 133 L 80.139 133 79.820 130.760 L 79.500 128.520 77.750 128.187 L 76 127.853 76 128.845 M 99 129.469 L 99 130.937 97.508 130.365 L 96.017 129.792 95.390 131.426 L 94.763 133.059 93.517 131.354 L 92.270 129.649 90.135 129.492 L 88 129.334 88 132.667 L 88 136 89 136 L 90 136 90 133.500 L 90 131 91.500 131 L 93 131 93.070 134.250 L 93.141 137.500 93.895 135.573 L 94.650 133.646 95.294 135.323 L 95.937 137 98.219 136.993 L 100.500 136.986 100.703 132.493 L 100.907 128 99.953 128 L 99 128 99 129.469 M 112.882 128.750 L 112.763 129.500 112.882 130.250 L 113 131 111.200 131 L 109.400 131 108.200 132.200 L 107 133.400 107 132.134 L 107 130.867 104.250 131.184 L 101.500 131.500 101.500 133.891 L 101.500 136.282 103.222 137.369 L 104.945 138.455 106.222 137.080 L 107.500 135.706 105.782 136.309 L 104.064 136.913 103.544 136.071 L 103.023 135.229 105.435 134.768 L 107.847 134.307 108.329 136.150 L 108.811 137.993 111.405 137.779 L 114 137.564 114 132.782 L 114 128 113.500 128 L 113 128 112.882 128.750 M 118.252 133.500 L 118.272 137.500 118.707 135.238 L 119.142 132.977 118.687 131.238 L 118.232 129.500 118.252 133.500 M 120.118 133.899 L 120.237 137.500 120.868 134.582 L 121.500 131.665 122.750 131.249 L 124 130.833 124 133.358 L 124 135.882 125.071 136.544 L 126.142 137.206 125.821 133.853 L 125.500 130.500 122.750 130.399 L 120 130.298 120.118 133.899 M 137.500 131 L 136.882 132 137.473 132.956 L 138.064 133.913 139.532 133.349 L 141 132.786 141 131.393 L 141 130 139.559 130 L 138.118 130 137.500 131 M 96.639 131.694 L 96 132.333 96 134.167 L 96 136 97.500 136 L 99 136 99 134.059 L 99 132.118 98.139 131.586 L 97.279 131.054 96.639 131.694 M 103 132.393 L 103 132.786 104.500 133.362 L 106 133.937 106 132.969 L 106 132 104.500 132 L 103 132 103 132.393 M 109.368 133.484 L 108.734 135.134 109.909 136.309 L 111.083 137.483 112.025 135.992 L 112.967 134.500 112.671 133.563 L 112.375 132.625 111.188 132.229 L 110.001 131.834 109.368 133.484 M 14.015 155.750 L 14.031 156.500 17.359 169 L 20.688 181.500 24.721 181.801 L 28.754 182.103 29.988 175.561 L 31.223 169.020 31.969 169.481 L 32.714 169.941 33.994 175.971 L 35.273 182 39.137 182 L 43 182 43 181.517 L 43 181.033 46.038 169.767 L 49.076 158.500 49.605 156.750 L 50.135 155 46.750 155 L 43.366 155 41.511 162.750 L 39.656 170.500 37.716 162.750 L 35.776 155 32.427 155 L 29.077 155 28.133 158.750 L 27.188 162.500 26.321 166.438 L 25.454 170.376 23.642 162.688 L 21.829 155 17.915 155 L 14 155 14.015 155.750 M 55.378 162.403 L 52.257 163.796 50.628 166.120 L 49 168.445 49 172.088 L 49 175.730 51.016 178.293 L 53.031 180.855 56.516 182.005 L 60 183.155 63.484 182.005 L 66.969 180.855 68.984 178.293 L 71 175.730 71 171.881 L 71 168.032 68.250 165.059 L 65.500 162.087 62 161.549 L 58.500 161.011 55.378 162.403 M 78.315 162.430 L 75.129 163.849 73.459 167.079 L 71.789 170.310 72.352 173.779 L 72.915 177.248 74.578 179.086 L 76.242 180.925 79.749 182.082 L 83.256 183.240 87.092 182.091 L 90.928 180.941 92.464 178.748 L 94 176.555 94 175.777 L 94 175 90 175 L 86 175 86 176 L 86 177 83.500 177 L 81 177 81 175.500 L 81 174 87.500 174 L 94 174 94 171.016 L 94 168.032 91.250 165.059 L 88.500 162.087 85 161.549 L 81.500 161.011 78.315 162.430 M 105.223 162.557 L 103 164.113 103 163.057 L 103 162 99.500 162 L 96 162 96 172 L 96 182 99.952 182 L 103.905 182 104.202 175.750 L 104.500 169.500 106.750 169.180 L 109 168.861 109 164.930 L 109 161 108.223 161 L 107.445 161 105.223 162.557 M 121.157 161.882 L 119.813 162.733 115.407 162.237 L 111 161.740 111 171.870 L 111 182 114.456 182 L 117.912 182 118.206 174.750 L 118.500 167.500 120 167.500 L 121.500 167.500 121.794 174.750 L 122.088 182 126 182 L 129.912 182 130.206 174.830 L 130.500 167.660 131.750 167.247 L 133 166.833 133 174.417 L 133 182 137.038 182 L 141.075 182 140.788 172.785 L 140.500 163.571 137.738 162.035 L 134.977 160.500 131.907 162.250 L 128.838 164 126.696 162.500 L 124.555 161 123.527 161.015 L 122.500 161.031 121.157 161.882 M 150.272 161.806 L 148.045 162.500 146.022 164.240 L 144 165.980 144 166.881 L 144 167.781 147.488 168.188 L 150.976 168.596 152.392 167.179 L 153.808 165.763 154.904 166.441 L 156 167.118 156 168.059 L 156 169 153.968 169 L 151.936 169 148.470 170.448 L 145.004 171.896 143.860 174.407 L 142.716 176.918 144.301 179.336 L 145.885 181.754 148.515 182.414 L 151.145 183.074 154.072 181.614 L 157 180.153 157 181.077 L 157 182 160.757 182 L 164.515 182 164.170 173.750 L 163.825 165.500 162.163 163.794 L 160.500 162.087 156.500 161.600 L 152.500 161.113 150.272 161.806 M 178.732 161.601 L 178.024 162.309 172.512 162.129 L 167 161.949 167 171.975 L 167 182 171 182 L 175 182 175 176.082 L 175 170.164 175.607 168.582 L 176.214 167 177.607 167 L 179 167 179 174.500 L 179 182 183 182 L 187 182 187 173.122 L 187 164.245 185.744 163.203 L 184.489 162.161 181.964 161.527 L 179.440 160.894 178.732 161.601 M 201.732 161.601 L 201.024 162.309 195.512 162.129 L 190 161.949 190 171.975 L 190 182 193.956 182 L 197.912 182 198.206 174.761 L 198.500 167.521 200.250 167.187 L 202 166.853 202 174.427 L 202 182 206 182 L 210 182 210 173.691 L 210 165.382 208.750 163.746 L 207.500 162.109 204.970 161.502 L 202.440 160.894 201.732 161.601 M 81.701 166.632 L 81 167.333 81 168.167 L 81 169 83.583 169 L 86.167 169 85.750 167.750 L 85.334 166.500 83.868 166.215 L 82.402 165.931 81.701 166.632 M 58.198 172.171 L 58.500 177.343 59.744 177.753 L 60.988 178.163 62.035 175.408 L 63.083 172.653 62.462 169.826 L 61.841 167 59.868 167 L 57.895 167 58.198 172.171 M 152.336 174.567 L 151.734 176.134 152.732 177.132 L 153.729 178.129 155.364 176.493 L 157 174.857 157 173.929 L 157 173 154.969 173 L 152.937 173 152.336 174.567 M 19.519 189.390 L 17.130 191.780 17.703 193.972 L 18.276 196.164 21.888 197.703 L 25.500 199.243 27 199.980 L 28.500 200.718 28.500 201.609 L 28.500 202.500 26.246 202.820 L 23.991 203.140 23.389 201.570 L 22.786 200 19.893 200 L 17 200 17 201.389 L 17 202.778 18.844 205.056 L 20.688 207.333 25.098 207.333 L 29.509 207.333 31.743 206.138 L 33.976 204.942 34.598 202.464 L 35.220 199.985 33.676 197.628 L 32.131 195.270 27.417 194.083 L 22.703 192.897 23.877 191.723 L 25.050 190.550 27.011 191.775 L 28.973 193 31.486 193 L 34 193 34 191.557 L 34 190.113 31.777 188.557 L 29.555 187 25.732 187 L 21.909 187 19.519 189.390 M 153 189.889 L 153 192.778 151.750 192.731 L 150.500 192.685 146.250 192.842 L 142 193 142 200 L 142 207 144.945 207 L 147.890 207 148.195 202.359 L 148.500 197.718 150.750 196.891 L 153 196.064 153 201.532 L 153 207 156 207 L 159 207 159 205.059 L 159 203.118 159.996 202.503 L 160.991 201.887 162.156 204.444 L 163.321 207 166.703 207 L 170.084 207 167.417 202.448 L 164.749 197.896 167.049 195.448 L 169.349 193 165.796 193 L 162.244 193 160.674 195.250 L 159.105 197.500 159.052 192.250 L 159 187 156 187 L 153 187 153 189.889 M 190.750 189.080 L 189 190.099 189 191.550 L 189 193 188 193 L 187 193 187 195 L 187 197 188 197 L 189 197 189 201.525 L 189 206.050 191.393 206.959 L 193.785 207.869 195.777 207.348 L 197.768 206.827 197.277 204.950 L 196.785 203.072 195.643 203.286 L 194.500 203.500 194.187 200.250 L 193.873 197 195.437 197 L 197 197 197 195 L 197 193 195.500 193 L 194 193 194 190.500 L 194 188 193.250 188.030 L 192.500 188.061 190.750 189.080 M 61.650 192.683 L 60.946 193.388 56.936 193.151 L 52.927 192.915 53.213 202.707 L 53.500 212.500 56.250 212.816 L 59 213.133 59 209.531 L 59 205.930 60.935 206.965 L 62.869 208 65.298 207.077 L 67.727 206.153 68.364 204.495 L 69 202.836 69 199.609 L 69 196.382 67.750 194.792 L 66.500 193.202 64.428 192.590 L 62.355 191.978 61.650 192.683 M 74.315 192.969 L 72.131 193.887 71.065 195.878 L 70 197.869 70 200.212 L 70 202.555 71.464 204.645 L 72.928 206.736 76.026 207.355 L 79.124 207.975 82.562 206.538 L 86 205.102 86 203.969 L 86 202.835 81.348 203.167 L 76.695 203.500 76.264 202.250 L 75.833 201 81.484 201 L 87.135 201 86.463 198.750 L 85.791 196.500 84.142 194.774 L 82.493 193.049 79.497 192.550 L 76.500 192.051 74.315 192.969 M 95.472 192.862 L 94.929 193.404 91.465 193.171 L 88 192.937 88 199.969 L 88 207 90.500 207 L 93 207 93 204.565 L 93 202.130 93.975 199.565 L 94.950 197 96.392 197 L 97.833 197 98.338 195.750 L 98.842 194.500 98.921 200.750 L 99 207 101.500 207 L 104 207 104 203.582 L 104 200.164 104.607 198.582 L 105.214 197 106.607 197 L 108 197 108 202 L 108 207 110.945 207 L 113.890 207 114.195 202.250 L 114.500 197.500 116 197.500 L 117.500 197.500 117.805 202.250 L 118.110 207 120.555 207 L 123 207 122.985 201.250 L 122.969 195.500 122.235 194.385 L 121.500 193.270 119.448 192.630 L 117.395 191.991 115.491 193.383 L 113.587 194.775 111.437 193.367 L 109.287 191.958 107.011 192.800 L 104.734 193.643 100.374 192.981 L 96.014 192.319 95.472 192.862 M 128.079 193.215 L 125.658 194.500 125.287 195.625 L 124.916 196.751 127.482 197.241 L 130.048 197.732 130.583 196.866 L 131.118 196 133.059 196 L 135 196 135 196.858 L 135 197.716 130.866 198.608 L 126.732 199.500 125.369 201.562 L 124.005 203.625 125.308 205.406 L 126.610 207.187 129.055 207.131 L 131.500 207.074 136.082 207.039 L 140.665 207.003 140.224 201.252 L 139.784 195.500 138.573 194.216 L 137.361 192.933 133.931 192.432 L 130.500 191.931 128.079 193.215 M 175 192.672 L 173.500 193.261 171.750 194.785 L 170 196.310 170 200 L 170 203.690 171.979 205.481 L 173.959 207.273 178.065 207.273 L 182.172 207.273 184.336 205.020 L 186.500 202.767 181.250 203.418 L 176 204.069 176 202.534 L 176 201 181 201 L 186 201 186 198.655 L 186 196.310 184.184 194.667 L 182.369 193.024 179.434 192.554 L 176.500 192.084 175 192.672 M 201.009 193.249 L 198.518 194.550 198.176 196.323 L 197.835 198.096 198.953 199.443 L 200.071 200.791 203.501 201.434 L 206.930 202.077 207.552 203.085 L 208.175 204.092 203.087 203.417 L 198 202.742 198 203.749 L 198 204.755 199.250 205.740 L 200.500 206.724 203.181 207.364 L 205.861 208.003 208.660 206.939 L 211.459 205.875 212.214 204.687 L 212.969 203.500 212.985 202.321 L 213 201.143 211.429 199.571 L 209.857 198 206.988 198 L 204.118 198 203.452 196.923 L 202.786 195.845 207.393 196.536 L 212 197.227 212 196.236 L 212 195.245 210.655 194.128 L 209.309 193.012 206.405 192.480 L 203.500 191.948 201.009 193.249 M 36 198.977 L 36 204.954 38.456 206.563 L 40.912 208.172 42.116 207.429 L 43.319 206.685 47.160 206.835 L 51 206.986 51 199.993 L 51 193 48.555 193 L 46.110 193 45.805 197.741 L 45.500 202.482 43.750 202.814 L 42 203.147 42 198.073 L 42 193 39 193 L 36 193 36 198.977 M 76.701 196.632 L 76 197.333 76 198.167 L 76 199 78.583 199 L 81.167 199 80.750 197.750 L 80.334 196.500 78.868 196.215 L 77.402 195.931 76.701 196.632 M 176 197.500 L 176 199 178 199 L 180 199 180 197.500 L 180 196 178 196 L 176 196 176 197.500 M 59.362 198.500 L 58.786 200 59.362 201.500 L 59.937 203 61.362 203 L 62.786 203 63.362 201.500 L 63.937 200 63.362 198.500 L 62.786 197 61.362 197 L 59.937 197 59.362 198.500 M 130.667 201.667 L 130 202.333 130 203.236 L 130 204.139 132.172 203.820 L 134.343 203.500 134.755 202.250 L 135.167 201 133.250 201 L 131.333 201 130.667 201.667" stroke="none" fill="#f9f2f2" fill-rule="evenodd"/><path d="M -0 112.504 L -0 225.009 112.750 224.754 L 225.500 224.500 225.754 112.250 L 226.009 0 113.004 0 L 0 0 -0 112.504 M 0.483 113 L 0.483 225.500 0.750 169.250 L 1.017 113 0.750 56.750 L 0.483 0.500 0.483 113 M 79.239 19.250 L 78.232 20.500 63.616 45.825 L 49 71.150 49 72.848 L 49 74.547 56.906 88.213 L 64.811 101.879 62.526 101.010 L 60.241 100.141 51.027 95.513 L 41.812 90.886 39.656 91.193 L 37.500 91.500 37.197 94.107 L 36.895 96.713 40.447 102.775 L 44 108.837 44 109.405 L 44 109.973 40.500 111.436 L 37 112.898 37 115.377 L 37 117.855 42.750 121.336 L 48.500 124.816 52.250 126.593 L 56 128.370 56 131.114 L 56 133.857 57.561 135.419 L 59.123 136.980 68.811 139.975 L 78.500 142.970 86.500 144.716 L 94.500 146.463 110.500 146.470 L 126.500 146.478 135 144.688 L 143.500 142.898 155 138.964 L 166.500 135.031 167.750 133.324 L 169 131.618 169 128.980 L 169 126.342 174.186 123.921 L 179.372 121.500 183.186 118.744 L 187 115.987 187 114.019 L 187 112.051 183.750 110.399 L 180.500 108.746 180.160 108.449 L 179.820 108.153 183.987 101.138 L 188.155 94.123 187.828 91.811 L 187.500 89.500 184.748 89.183 L 181.996 88.867 179.248 90.809 L 176.500 92.751 168.147 96.939 L 159.793 101.126 159.493 100.813 L 159.193 100.500 167.088 87 L 174.982 73.500 174.430 72 L 173.878 70.500 159.787 46 L 145.695 21.500 144.192 19.750 L 142.690 18 111.467 18 L 80.245 18 79.239 19.250 M 82.043 23.500 L 81.259 24.500 67.630 48.124 L 54 71.748 54 73.042 L 54 74.336 66.108 95.227 L 78.216 116.118 77.780 116.553 L 77.344 116.989 68.672 114.058 L 60 111.127 60 117.563 L 60 124 59.250 123.951 L 58.500 123.901 51.036 120.080 L 43.572 116.259 47.862 114.070 L 52.152 111.882 50.377 109.191 L 48.602 106.500 46.202 102.225 L 43.801 97.950 47.151 99.893 L 50.500 101.836 60.287 105.989 L 70.075 110.142 71.185 109.772 L 72.296 109.401 64.398 106.105 L 56.500 102.809 48.228 98.535 L 39.957 94.262 42.855 99.381 L 45.753 104.500 47.909 108.138 L 50.065 111.775 45.536 113.638 L 41.007 115.500 41.004 116.036 L 41 116.572 50.448 121.536 L 59.896 126.500 60.198 129.960 L 60.500 133.419 69.458 136.267 L 78.415 139.115 85.458 140.651 L 92.500 142.186 106 142.693 L 119.500 143.199 129.012 141.636 L 138.524 140.073 147.012 137.611 L 155.500 135.149 160.250 133.110 L 165 131.071 165 128.122 L 165 125.173 174.734 119.925 L 184.467 114.678 180.015 112.787 L 175.563 110.896 175.160 110.493 L 174.757 110.090 179.378 102.207 L 184 94.324 184 93.854 L 184 93.384 174.750 97.971 L 165.500 102.558 159.081 105.277 L 152.663 107.996 153.248 108.582 L 153.834 109.167 164.667 104.489 L 175.500 99.810 177.750 98.382 L 180 96.954 180 97.596 L 180 98.238 176.434 104.108 L 172.868 109.978 173.413 110.859 L 173.957 111.740 176.979 112.991 L 180 114.243 180 114.902 L 180 115.561 172.500 119.273 L 165 122.984 165 116.492 L 165 110 164.160 110 L 163.320 110 154.910 112.915 L 146.500 115.830 146.124 115.456 L 145.748 115.082 157.876 94.052 L 170.003 73.023 155.693 48.261 L 141.382 23.500 112.105 23 L 82.827 22.500 82.043 23.500 M 83.639 29.250 L 82.232 31.500 70.616 51.691 L 59 71.882 59.046 73.191 L 59.093 74.500 71.848 96.500 L 84.603 118.500 109.551 118.526 L 134.500 118.552 110 118.228 L 85.500 117.905 72.739 95.796 L 59.979 73.688 60.332 73.335 L 60.685 72.982 111.838 73.241 L 162.990 73.500 150.889 94.443 L 138.789 115.387 138.247 116.943 L 137.706 118.500 138.770 117.500 L 139.834 116.500 152.361 94.758 L 164.888 73.016 151.694 50.028 L 138.500 27.039 111.773 27.020 L 85.046 27 83.639 29.250 M 86.554 53.250 L 93.860 67.500 98.775 67.797 L 103.690 68.094 107.542 57.577 L 111.394 47.061 111.758 47.425 L 112.121 47.788 115.853 57.644 L 119.584 67.500 124.542 67.770 L 129.500 68.040 136.750 54.047 L 144 40.055 144 39.527 L 144 39 138.601 39 L 133.201 39 129.391 48 L 125.580 57 124.943 57 L 124.306 57 120.929 47.958 L 117.553 38.916 111.691 39.208 L 105.828 39.500 102.788 47.500 L 99.747 55.500 99.081 56.243 L 98.414 56.986 94.606 47.993 L 90.799 39 85.023 39 L 79.248 39 86.554 53.250 M 85 91.618 L 85 107.236 107.750 106.758 L 130.500 106.280 134.950 104.614 L 139.401 102.947 141.200 101.319 L 143 99.690 143 97.500 L 143 95.310 141.248 93.725 L 139.496 92.139 136.575 91.028 L 133.653 89.918 137.077 88.209 L 140.500 86.500 140.811 84.311 L 141.123 82.123 139.126 80.126 L 137.130 78.130 133.315 77.071 L 129.500 76.011 107.250 76.006 L 85 76 85 91.618 M 99 84.521 L 99 88.206 111.465 87.853 L 123.930 87.500 125.515 85.914 L 127.100 84.328 125.400 82.914 L 123.700 81.500 111.350 81.168 L 99 80.837 99 84.521 M 99 97 L 99 101 110.351 101 L 121.702 101 124.905 99.883 L 128.109 98.767 127.804 96.674 L 127.500 94.582 125 93.891 L 122.500 93.199 110.750 93.100 L 99 93 99 97 M 152.839 115.060 L 144.178 117.926 133.839 120.104 L 123.500 122.282 110 122.258 L 96.500 122.234 88.083 120.669 L 79.665 119.104 70.826 116.392 L 61.986 113.681 61.544 114.123 L 61.102 114.565 61.693 123.694 L 62.285 132.824 72.892 135.872 L 83.500 138.920 89.500 139.923 L 95.500 140.925 104 141.563 L 112.500 142.200 122.466 141.072 L 132.432 139.943 140.466 137.978 L 148.500 136.012 155.750 133.405 L 163 130.797 163 121.399 L 163 112 162.250 112.097 L 161.500 112.194 152.839 115.060 M 14.015 155.750 L 14.031 156.500 17.359 169 L 20.688 181.500 24.721 181.801 L 28.754 182.103 29.988 175.561 L 31.223 169.020 31.969 169.481 L 32.714 169.941 33.994 175.971 L 35.273 182 39.137 182 L 43 182 43 181.517 L 43 181.033 46.038 169.767 L 49.076 158.500 49.605 156.750 L 50.135 155 46.750 155 L 43.366 155 41.511 162.750 L 39.656 170.500 37.716 162.750 L 35.776 155 32.427 155 L 29.077 155 28.133 158.750 L 27.188 162.500 26.321 166.438 L 25.454 170.376 23.642 162.688 L 21.829 155 17.915 155 L 14 155 14.015 155.750 M 55.378 162.403 L 52.257 163.796 50.628 166.120 L 49 168.445 49 172.088 L 49 175.730 51.016 178.293 L 53.031 180.855 56.516 182.005 L 60 183.155 63.484 182.005 L 66.969 180.855 68.984 178.293 L 71 175.730 71 171.881 L 71 168.032 68.250 165.059 L 65.500 162.087 62 161.549 L 58.500 161.011 55.378 162.403 M 78.315 162.430 L 75.129 163.849 73.459 167.079 L 71.789 170.310 72.352 173.779 L 72.915 177.248 74.578 179.086 L 76.242 180.925 79.749 182.082 L 83.256 183.240 87.092 182.091 L 90.928 180.941 92.464 178.748 L 94 176.555 94 175.777 L 94 175 90 175 L 86 175 86 176 L 86 177 83.500 177 L 81 177 81 175.500 L 81 174 87.500 174 L 94 174 94 171.016 L 94 168.032 91.250 165.059 L 88.500 162.087 85 161.549 L 81.500 161.011 78.315 162.430 M 105.223 162.557 L 103 164.113 103 163.057 L 103 162 99.500 162 L 96 162 96 172 L 96 182 99.952 182 L 103.905 182 104.202 175.750 L 104.500 169.500 106.750 169.180 L 109 168.861 109 164.930 L 109 161 108.223 161 L 107.445 161 105.223 162.557 M 121.157 161.882 L 119.813 162.733 115.407 162.237 L 111 161.740 111 171.870 L 111 182 114.456 182 L 117.912 182 118.206 174.750 L 118.500 167.500 120 167.500 L 121.500 167.500 121.794 174.750 L 122.088 182 126 182 L 129.912 182 130.206 174.830 L 130.500 167.660 131.750 167.247 L 133 166.833 133 174.417 L 133 182 137.038 182 L 141.075 182 140.788 172.785 L 140.500 163.571 137.738 162.035 L 134.977 160.500 131.907 162.250 L 128.838 164 126.696 162.500 L 124.555 161 123.527 161.015 L 122.500 161.031 121.157 161.882 M 150.272 161.806 L 148.045 162.500 146.022 164.240 L 144 165.980 144 166.881 L 144 167.781 147.488 168.188 L 150.976 168.596 152.392 167.179 L 153.808 165.763 154.904 166.441 L 156 167.118 156 168.059 L 156 169 153.968 169 L 151.936 169 148.470 170.448 L 145.004 171.896 143.860 174.407 L 142.716 176.918 144.301 179.336 L 145.885 181.754 148.515 182.414 L 151.145 183.074 154.072 181.614 L 157 180.153 157 181.077 L 157 182 160.757 182 L 164.515 182 164.170 173.750 L 163.825 165.500 162.163 163.794 L 160.500 162.087 156.500 161.600 L 152.500 161.113 150.272 161.806 M 178.732 161.601 L 178.024 162.309 172.512 162.129 L 167 161.949 167 171.975 L 167 182 171 182 L 175 182 175 176.082 L 175 170.164 175.607 168.582 L 176.214 167 177.607 167 L 179 167 179 174.500 L 179 182 183 182 L 187 182 187 173.122 L 187 164.245 185.744 163.203 L 184.489 162.161 181.964 161.527 L 179.440 160.894 178.732 161.601 M 201.732 161.601 L 201.024 162.309 195.512 162.129 L 190 161.949 190 171.975 L 190 182 193.956 182 L 197.912 182 198.206 174.761 L 198.500 167.521 200.250 167.187 L 202 166.853 202 174.427 L 202 182 206 182 L 210 182 210 173.691 L 210 165.382 208.750 163.746 L 207.500 162.109 204.970 161.502 L 202.440 160.894 201.732 161.601 M 81.701 166.632 L 81 167.333 81 168.167 L 81 169 83.583 169 L 86.167 169 85.750 167.750 L 85.334 166.500 83.868 166.215 L 82.402 165.931 81.701 166.632 M 58.198 172.171 L 58.500 177.343 59.744 177.753 L 60.988 178.163 62.035 175.408 L 63.083 172.653 62.462 169.826 L 61.841 167 59.868 167 L 57.895 167 58.198 172.171 M 152.336 174.567 L 151.734 176.134 152.732 177.132 L 153.729 178.129 155.364 176.493 L 157 174.857 157 173.929 L 157 173 154.969 173 L 152.937 173 152.336 174.567 M 19.519 189.390 L 17.130 191.780 17.703 193.972 L 18.276 196.164 21.888 197.703 L 25.500 199.243 27 199.980 L 28.500 200.718 28.500 201.609 L 28.500 202.500 26.246 202.820 L 23.991 203.140 23.389 201.570 L 22.786 200 19.893 200 L 17 200 17 201.389 L 17 202.778 18.844 205.056 L 20.688 207.333 25.098 207.333 L 29.509 207.333 31.743 206.138 L 33.976 204.942 34.598 202.464 L 35.220 199.985 33.676 197.628 L 32.131 195.270 27.417 194.083 L 22.703 192.897 23.877 191.723 L 25.050 190.550 27.011 191.775 L 28.973 193 31.486 193 L 34 193 34 191.557 L 34 190.113 31.777 188.557 L 29.555 187 25.732 187 L 21.909 187 19.519 189.390 M 153 189.889 L 153 192.778 151.750 192.731 L 150.500 192.685 146.250 192.842 L 142 193 142 200 L 142 207 144.945 207 L 147.890 207 148.195 202.359 L 148.500 197.718 150.750 196.891 L 153 196.064 153 201.532 L 153 207 156 207 L 159 207 159 205.059 L 159 203.118 159.996 202.503 L 160.991 201.887 162.156 204.444 L 163.321 207 166.703 207 L 170.084 207 167.417 202.448 L 164.749 197.896 167.049 195.448 L 169.349 193 165.796 193 L 162.244 193 160.674 195.250 L 159.105 197.500 159.052 192.250 L 159 187 156 187 L 153 187 153 189.889 M 190.750 189.080 L 189 190.099 189 191.550 L 189 193 188 193 L 187 193 187 195 L 187 197 188 197 L 189 197 189 201.525 L 189 206.050 191.393 206.959 L 193.785 207.869 195.777 207.348 L 197.768 206.827 197.277 204.950 L 196.785 203.072 195.643 203.286 L 194.500 203.500 194.187 200.250 L 193.873 197 195.437 197 L 197 197 197 195 L 197 193 195.500 193 L 194 193 194 190.500 L 194 188 193.250 188.030 L 192.500 188.061 190.750 189.080 M 61.650 192.683 L 60.946 193.388 56.936 193.151 L 52.927 192.915 53.213 202.707 L 53.500 212.500 56.250 212.816 L 59 213.133 59 209.531 L 59 205.930 60.935 206.965 L 62.869 208 65.298 207.077 L 67.727 206.153 68.364 204.495 L 69 202.836 69 199.609 L 69 196.382 67.750 194.792 L 66.500 193.202 64.428 192.590 L 62.355 191.978 61.650 192.683 M 74.315 192.969 L 72.131 193.887 71.065 195.878 L 70 197.869 70 200.212 L 70 202.555 71.464 204.645 L 72.928 206.736 76.026 207.355 L 79.124 207.975 82.562 206.538 L 86 205.102 86 203.969 L 86 202.835 81.348 203.167 L 76.695 203.500 76.264 202.250 L 75.833 201 81.484 201 L 87.135 201 86.463 198.750 L 85.791 196.500 84.142 194.774 L 82.493 193.049 79.497 192.550 L 76.500 192.051 74.315 192.969 M 95.472 192.862 L 94.929 193.404 91.465 193.171 L 88 192.937 88 199.969 L 88 207 90.500 207 L 93 207 93 204.565 L 93 202.130 93.975 199.565 L 94.950 197 96.392 197 L 97.833 197 98.338 195.750 L 98.842 194.500 98.921 200.750 L 99 207 101.500 207 L 104 207 104 203.582 L 104 200.164 104.607 198.582 L 105.214 197 106.607 197 L 108 197 108 202 L 108 207 110.945 207 L 113.890 207 114.195 202.250 L 114.500 197.500 116 197.500 L 117.500 197.500 117.805 202.250 L 118.110 207 120.555 207 L 123 207 122.985 201.250 L 122.969 195.500 122.235 194.385 L 121.500 193.270 119.448 192.630 L 117.395 191.991 115.491 193.383 L 113.587 194.775 111.437 193.367 L 109.287 191.958 107.011 192.800 L 104.734 193.643 100.374 192.981 L 96.014 192.319 95.472 192.862 M 128.079 193.215 L 125.658 194.500 125.287 195.625 L 124.916 196.751 127.482 197.241 L 130.048 197.732 130.583 196.866 L 131.118 196 133.059 196 L 135 196 135 196.858 L 135 197.716 130.866 198.608 L 126.732 199.500 125.369 201.562 L 124.005 203.625 125.308 205.406 L 126.610 207.187 129.055 207.131 L 131.500 207.074 136.082 207.039 L 140.665 207.003 140.224 201.252 L 139.784 195.500 138.573 194.216 L 137.361 192.933 133.931 192.432 L 130.500 191.931 128.079 193.215 M 175 192.672 L 173.500 193.261 171.750 194.785 L 170 196.310 170 200 L 170 203.690 171.979 205.481 L 173.959 207.273 178.065 207.273 L 182.172 207.273 184.336 205.020 L 186.500 202.767 181.250 203.418 L 176 204.069 176 202.534 L 176 201 181 201 L 186 201 186 198.655 L 186 196.310 184.184 194.667 L 182.369 193.024 179.434 192.554 L 176.500 192.084 175 192.672 M 201.009 193.249 L 198.518 194.550 198.176 196.323 L 197.835 198.096 198.953 199.443 L 200.071 200.791 203.501 201.434 L 206.930 202.077 207.552 203.085 L 208.175 204.092 203.087 203.417 L 198 202.742 198 203.749 L 198 204.755 199.250 205.740 L 200.500 206.724 203.181 207.364 L 205.861 208.003 208.660 206.939 L 211.459 205.875 212.214 204.687 L 212.969 203.500 212.985 202.321 L 213 201.143 211.429 199.571 L 209.857 198 206.988 198 L 204.118 198 203.452 196.923 L 202.786 195.845 207.393 196.536 L 212 197.227 212 196.236 L 212 195.245 210.655 194.128 L 209.309 193.012 206.405 192.480 L 203.500 191.948 201.009 193.249 M 36 198.977 L 36 204.954 38.456 206.563 L 40.912 208.172 42.116 207.429 L 43.319 206.685 47.160 206.835 L 51 206.986 51 199.993 L 51 193 48.555 193 L 46.110 193 45.805 197.741 L 45.500 202.482 43.750 202.814 L 42 203.147 42 198.073 L 42 193 39 193 L 36 193 36 198.977 M 76.701 196.632 L 76 197.333 76 198.167 L 76 199 78.583 199 L 81.167 199 80.750 197.750 L 80.334 196.500 78.868 196.215 L 77.402 195.931 76.701 196.632 M 176 197.500 L 176 199 178 199 L 180 199 180 197.500 L 180 196 178 196 L 176 196 176 197.500 M 59.362 198.500 L 58.786 200 59.362 201.500 L 59.937 203 61.362 203 L 62.786 203 63.362 201.500 L 63.937 200 63.362 198.500 L 62.786 197 61.362 197 L 59.937 197 59.362 198.500 M 130.667 201.667 L 130 202.333 130 203.236 L 130 204.139 132.172 203.820 L 134.343 203.500 134.755 202.250 L 135.167 201 133.250 201 L 131.333 201 130.667 201.667" stroke="none" fill="#e31d2d" fill-rule="evenodd"/></svg>